Coordinates
version=1
nRows=24
nColumns=24
inDegrees=yes

Units are S.I. units (second, meters, Newtons, ...)
Angles are in degrees.

endheader
time	pelvis_tilt	pelvis_list	pelvis_rotation	pelvis_tx	pelvis_ty	pelvis_tz	hip_flexion_r	hip_adduction_r	hip_rotation_r	knee_angle_r	ankle_angle_r	subtalar_angle_r	mtp_angle_r	hip_flexion_l	hip_adduction_l	hip_rotation_l	knee_angle_l	ankle_angle_l	subtalar_angle_l	mtp_angle_l	lumbar_extension	lumbar_bending	lumbar_rotation
      6.11000000	      6.78456356	      0.12607116	      1.30896663	     -0.12658118	      0.75068934	      0.29662396	     -3.24940841	      4.81489585	      9.91822342	     -8.70125765	     14.89176659	    -16.37248093	      0.00000000	     19.96242907	      0.30861325	     -7.09758847	    -63.91237527	      3.16312865	    -18.94172482	      0.00000000	    -24.55217493	     -2.98454809	      2.09885690
      6.12000000	      6.68783290	      0.50965686	      0.86977851	     -0.11601613	      0.75108236	      0.29680953	     -4.26083110	      4.32668423	     10.15353671	     -8.28366985	     15.48570188	    -16.12713639	      0.00000000	     20.84832312	      0.65773443	     -7.65235601	    -61.35388178	      3.77795252	    -20.03309888	      0.00000000	    -24.52585309	     -3.53829478	      2.66266681
      6.13000000	      6.56748537	      0.82099928	      0.45860593	     -0.10546689	      0.75119657	      0.29690034	     -5.21648835	      3.90174379	     10.33935761	     -7.90218654	     16.09710725	    -15.88152972	      0.00000000	     21.57740811	      0.95847983	     -8.08792877	    -58.38051262	      4.09815326	    -21.44376058	      0.00000000	    -24.49094166	     -4.00101105	      3.22257481
      6.14000000	      6.45027220	      1.06415776	      0.07039578	     -0.09489651	      0.75107043	      0.29690723	     -6.15859838	      3.53664368	     10.48277213	     -7.54385899	     16.71316141	    -15.62646405	      0.00000000	     22.10401557	      1.21234982	     -8.40740572	    -54.98185379	      4.20285867	    -22.98083408	      0.00000000	    -24.47631559	     -4.38447458	      3.75587533
      6.15000000	      6.32492632	      1.24277686	     -0.29773693	     -0.08428441	      0.75070532	      0.29682736	     -7.07992573	      3.22961971	     10.62303872	     -7.21060995	     17.32103149	    -15.35731702	      0.00000000	     22.42660257	      1.44132238	     -8.57551628	    -51.14842671	      4.13505886	    -24.45234359	      0.00000000	    -24.46856688	     -4.69688970	      4.28861110
      6.16000000	      6.17964371	      1.34357396	     -0.64533960	     -0.07360931	      0.75006929	      0.29666306	     -7.95318633	      2.99805966	     10.69643688	     -6.92780613	     17.96096606	    -15.08605503	      0.00000000	     22.55764294	      1.62296818	     -8.60063041	    -46.89384251	      3.92177863	    -25.89537402	      0.00000000	    -24.44781465	     -4.91173136	      4.76134270
      6.17000000	      5.96400277	      1.36583274	     -0.96805247	     -0.06285841	      0.74912056	      0.29641063	     -8.70979170	      2.85111694	     10.75560147	     -6.73820405	     18.67776891	    -14.75786792	      0.00000000	     22.54345399	      1.78306674	     -8.39476613	    -42.22246954	      3.55884801	    -27.11695346	      0.00000000	    -24.35565538	     -5.03290500	      5.24166746
      6.18000000	      5.76609519	      1.31885787	     -1.26438743	     -0.05195358	      0.74796356	      0.29609467	     -9.51104979	      2.77224129	     10.80110697	     -6.52844401	     19.34169669	    -14.46114955	      0.00000000	     22.27225212	      1.90257558	     -8.00197946	    -37.14742076	      3.20248785	    -27.86789306	      0.00000000	    -24.27701299	     -5.07540507	      5.69989582
      6.19000000	      5.54553582	      1.16737003	     -1.53958961	     -0.04088227	      0.74652405	      0.29573424	    -10.29045956	      2.80571232	     10.85497591	     -6.35272729	     19.99171611	    -14.16308191	      0.00000000	     21.80667653	      1.93920542	     -7.36526937	    -31.73497192	      2.78036703	    -28.26006858	      0.00000000	    -24.15990494	     -5.00229345	      6.14970610
      6.20000000	      5.32590218	      0.89155703	     -1.79405568	     -0.02959979	      0.74480630	      0.29533956	    -11.08613675	      2.97110511	     10.90656335	     -6.19483058	     20.63439165	    -13.86529108	      0.00000000	     21.14517471	      1.84578962	     -6.48659806	    -26.07447605	      2.31501601	    -28.30933501	      0.00000000	    -24.02186705	     -4.79260268	      6.61099005
      6.21000000	      5.13756555	      0.48022650	     -2.05422539	     -0.01805839	      0.74282327	      0.29497832	    -11.95900875	      3.27551513	     11.05787737	     -6.01852809	     21.17684089	    -13.69379619	      0.00000000	     20.33319488	      1.52955067	     -5.61138133	    -20.36008233	      2.05451340	    -27.65840530	      0.00000000	    -23.88648145	     -4.44867515	      7.13765190
      6.22000000	      4.94178045	     -0.06430418	     -2.27124835	     -0.00626999	      0.74051230	      0.29454514	    -12.80540933	      3.72256781	     11.08851467	     -5.93859322	     21.85193217	    -13.30538001	      0.00000000	     19.40405937	      1.08101450	     -4.21781025	    -14.62466033	      1.38200985	    -27.57360780	      0.00000000	    -23.71452026	     -3.94930529	      7.62074218
      6.23000000	      4.81390851	     -0.76250971	     -2.48036154	      0.00575987	      0.73797887	      0.29415634	    -13.78439239	      4.32702175	     11.32749213	     -5.82747088	     22.39354239	    -13.15127634	      0.00000000	     18.53379205	      0.31889673	     -3.28999885	     -9.41521777	      1.36176095	    -26.37341134	      0.00000000	    -23.59671376	     -3.29106160	      8.16405462
      6.24000000	      4.71408673	     -1.49995094	     -2.67677824	      0.01798948	      0.73526863	      0.29374897	    -14.78466423	      4.96390441	     11.59375775	     -5.79306317	     22.91924853	    -12.96459263	      0.00000000	     17.76974044	     -0.54183106	     -2.53987394	     -4.81149299	      1.55328162	    -25.05790468	      0.00000000	    -23.49328667	     -2.60469246	      8.65765791
      6.25000000	      4.65274360	     -2.14057343	     -2.87334765	      0.03035401	      0.73256005	      0.29331458	    -15.76806355	      5.48271100	     11.71718897	     -5.88729791	     23.53524041	    -12.57848475	      0.00000000	     17.27721402	     -1.33484476	     -2.86279274	     -1.15302031	      2.67262852	    -22.31425702	      0.00000000	    -23.42930194	     -2.04323077	      9.12859335
      6.26000000	      4.62488812	     -2.64910232	     -3.05715032	      0.04282383	      0.72992963	      0.29277422	    -16.75092101	      5.84950605	     11.93356153	     -6.07388648	     24.02422144	    -12.33380559	      0.00000000	     16.90347925	     -1.93105224	     -3.41482063	      1.75400561	      3.88013813	    -19.76985092	      0.00000000	    -23.40003739	     -1.63070239	      9.50162493
      6.27000000	      4.64171696	     -2.98607786	     -3.24289464	      0.05537016	      0.72747476	      0.29213102	    -17.68549115	      6.02457433	     12.11986044	     -6.44076760	     24.46532277	    -12.10234197	      0.00000000	     16.59836630	     -2.28878397	     -4.09107874	      3.91142685	      5.07676026	    -17.61585699	      0.00000000	    -23.42192447	     -1.41930544	      9.77877928
      6.28000000	      4.70792395	     -3.14042591	     -3.43160478	      0.06809837	      0.72523438	      0.29136440	    -18.65298112	      5.98431541	     12.32994045	     -6.85538313	     24.74563547	    -11.89477147	      0.00000000	     16.22918581	     -2.42116842	     -4.30485077	      5.46563712	      5.84422859	    -16.81720679	      0.00000000	    -23.46278558	     -1.41236686	     10.00172259
      6.29000000	      4.69334412	     -3.13616585	     -3.64802348	      0.08086805	      0.72319198	      0.29052187	    -19.34878256	      5.78455126	     12.39133884	     -7.59119373	     25.01898688	    -11.52192473	      0.00000000	     16.16732043	     -2.34533891	     -5.12126252	      6.05112305	      7.00598059	    -15.61711126	      0.00000000	    -23.40746166	     -1.58420631	     10.15737773
      6.30000000	      4.69812703	     -3.00853609	     -3.87807445	      0.09383635	      0.72143495	      0.28957487	    -20.02910774	      5.44832871	     12.59818267	     -8.41074779	     25.03517292	    -11.38520548	      0.00000000	     16.02034653	     -2.14438383	     -5.33447809	      6.13807985	      7.38327650	    -15.91142587	      0.00000000	    -23.33066994	     -1.88887018	     10.29586732
      6.31000000	      4.71720930	     -2.70240066	     -4.08867838	      0.10699479	      0.72004373	      0.28848264	    -20.61026548	      4.93279870	     12.63505788	     -9.42295289	     24.82408474	    -11.26392811	      0.00000000	     15.94205112	     -1.73092300	     -5.64232323	      5.57743421	      7.52804894	    -16.48923887	      0.00000000	    -23.23412351	     -2.37839066	     10.35151248
      6.32000000	      4.79575633	     -2.29642374	     -4.25211149	      0.12034319	      0.71905827	      0.28720660	    -21.05506019	      4.31652707	     12.17616083	    -10.77315465	     24.71679149	    -10.51101749	      0.00000000	     15.71784051	     -1.21091454	     -5.21184064	      4.74112237	      6.65143678	    -18.61509844	      0.00000000	    -23.18048988	     -2.94728144	     10.29926088
      6.33000000	      4.80807620	     -1.76510780	     -4.42075113	      0.13385228	      0.71848016	      0.28585746	    -21.33876567	      3.60552225	     11.97474486	    -12.27790136	     24.11332071	    -10.21261955	      0.00000000	     15.61696803	     -0.55931579	     -4.89072785	      3.52997664	      5.29630539	    -20.87902638	      0.00000000	    -23.01463140	     -3.64551909	     10.23652651
      6.34000000	      4.78450904	     -1.11693324	     -4.45937112	      0.14746277	      0.71833455	      0.28429833	    -21.36035876	      2.85151920	     11.52102052	    -14.14174681	     23.18116189	    -10.02125783	      0.00000000	     15.58025637	      0.24081866	     -4.34575580	      2.10700558	      3.47325567	    -23.30059855	      0.00000000	    -22.80622552	     -4.41611895	      9.99273832
